<svg width="179" height="213" viewBox="0 0 179 213" fill="none" xmlns="http://www.w3.org/2000/svg">
<path d="M22.1767 85.0741H34.8324L54.9191 179.122H42.4956L38.1996 155.436H19.0417L14.5135 179.122H2.20605L22.1767 85.0741ZM36.4579 146.031L28.5626 103.651L20.7834 146.031H36.4579Z" fill="#1C1C1C"/>
<path d="M52.7615 47.9001H65.3011V60.9042H52.7615V47.9001ZM48.9299 154.952C45.9111 154.952 43.7824 154.681 42.5439 154.139V145.199C44.1695 145.431 45.2531 145.547 45.795 145.547C48.3494 145.547 50.1297 144.812 51.1359 143.341C52.2196 141.948 52.7615 139.974 52.7615 137.419V70.8895H65.185V138.697C65.185 143.96 63.753 147.985 60.889 150.772C58.025 153.558 54.0386 154.952 48.9299 154.952Z" fill="#1C1C1C"/>
<path d="M88.6971 72.7049H91.7933L98.4502 104.054H95.5474L93.9993 95.6556H86.5297L84.9429 104.054H82.0789L88.6971 72.7049ZM93.6123 93.5269L90.2839 76.6138L86.9554 93.5269H93.6123ZM101.646 81.6839H104.277V83.9674C105 83.0901 105.813 82.4322 106.716 81.9935C107.619 81.5291 108.56 81.2969 109.541 81.2969C111.399 81.2969 112.586 82.2644 113.102 84.1996C113.85 83.2449 114.688 82.5225 115.617 82.0322C116.572 81.542 117.565 81.2969 118.597 81.2969C119.707 81.2969 120.61 81.6968 121.307 82.4967C122.029 83.2965 122.39 84.5995 122.39 86.4056V104.054H119.758V86.483C119.758 85.2703 119.565 84.4318 119.178 83.9674C118.791 83.4771 118.236 83.232 117.514 83.232C116.843 83.232 116.133 83.4384 115.385 83.8513C114.637 84.2641 113.94 84.8317 113.295 85.5542C113.347 85.9154 113.372 86.1992 113.372 86.4056V104.054H110.702V86.483C110.702 85.2445 110.508 84.3931 110.121 83.9287C109.734 83.4642 109.18 83.232 108.457 83.232C107.786 83.232 107.09 83.4384 106.367 83.8513C105.645 84.2641 104.948 84.8188 104.277 85.5155V104.054H101.646V81.6839ZM133.403 104.402C131.958 104.402 130.63 103.693 129.417 102.274V104.054H126.592V72.7049H129.417V83.5416C129.907 82.8966 130.513 82.3676 131.236 81.9548C131.958 81.542 132.771 81.3356 133.674 81.3356C135.635 81.3356 136.977 82.1483 137.699 83.7738C138.422 85.3994 138.783 87.5538 138.783 90.2372V94.9589C138.783 98.0293 138.383 100.377 137.583 102.003C136.783 103.603 135.39 104.402 133.403 104.402ZM132.9 102.158C134.113 102.158 134.913 101.603 135.3 100.493C135.712 99.3839 135.919 97.5649 135.919 95.0363V90.2372C135.919 87.8376 135.712 86.1218 135.3 85.0897C134.913 84.0577 134.1 83.5416 132.861 83.5416C131.726 83.5416 130.578 84.1222 129.417 85.2833V100.532C130.397 101.616 131.558 102.158 132.9 102.158ZM148.266 104.402C146.821 104.402 145.66 104.119 144.782 103.551C143.905 102.983 143.26 102.067 142.847 100.803C142.434 99.5387 142.228 97.8229 142.228 95.6556V90.005C142.228 87.8118 142.434 86.096 142.847 84.8575C143.286 83.5932 143.944 82.6902 144.821 82.1483C145.724 81.6065 146.885 81.3356 148.304 81.3356C149.852 81.3356 151.039 81.671 151.865 82.3418C152.716 82.9869 153.297 83.9674 153.607 85.2833C153.942 86.5991 154.11 88.3666 154.11 90.5855V92.5981H145.053V96.507C145.053 98.6486 145.298 100.145 145.789 100.997C146.279 101.848 147.105 102.274 148.266 102.274C149.246 102.274 149.994 101.964 150.51 101.345C151.052 100.726 151.323 99.6033 151.323 97.9777V96.4296H154.071V97.6681C154.071 99.8355 153.62 101.5 152.716 102.661C151.813 103.822 150.33 104.402 148.266 104.402ZM151.323 90.9725V89.1148C151.323 87.7731 151.246 86.7153 151.091 85.9412C150.962 85.1671 150.678 84.5608 150.24 84.1222C149.801 83.6835 149.143 83.4642 148.266 83.4642C147.466 83.4642 146.834 83.6448 146.369 84.0061C145.905 84.3415 145.569 84.9478 145.363 85.8251C145.157 86.6765 145.053 87.8892 145.053 89.4631V90.9725H151.323ZM158.117 81.6839H160.981V84.7414C161.652 83.6319 162.439 82.8063 163.342 82.2644C164.27 81.7226 165.199 81.4517 166.128 81.4517C166.309 81.4517 166.477 81.4646 166.631 81.4904V84.5092C166.167 84.3544 165.702 84.277 165.238 84.277C163.458 84.277 162.039 85.1413 160.981 86.8701V104.054H158.117V81.6839Z" fill="black"/>
<path d="M81.3436 144.324C82.8143 144.324 83.8721 144.195 84.5172 143.937C85.188 143.653 85.6267 143.15 85.8331 142.428C86.0395 141.705 86.1427 140.518 86.1427 138.867V113.826H89.0841V139.022C89.0841 140.88 88.9164 142.337 88.581 143.395C88.2713 144.453 87.665 145.24 86.7619 145.756C85.8589 146.272 84.5301 146.53 82.7756 146.53H81.3436V144.324ZM99.5453 145.524C97.3264 145.524 95.7783 144.84 94.901 143.473C94.0237 142.079 93.5851 139.951 93.5851 137.087V130.894C93.5851 128.03 94.0237 125.915 94.901 124.547C95.7783 123.154 97.3264 122.457 99.5453 122.457C101.79 122.457 103.351 123.154 104.228 124.547C105.106 125.915 105.544 128.03 105.544 130.894V137.087C105.544 139.951 105.106 142.079 104.228 143.473C103.351 144.84 101.79 145.524 99.5453 145.524ZM99.5453 143.395C100.474 143.395 101.158 143.15 101.597 142.66C102.061 142.17 102.358 141.512 102.487 140.686C102.616 139.835 102.68 138.687 102.68 137.242V130.74C102.68 129.295 102.616 128.159 102.487 127.334C102.358 126.482 102.061 125.811 101.597 125.321C101.158 124.831 100.474 124.586 99.5453 124.586C98.6165 124.586 97.9327 124.831 97.4941 125.321C97.0554 125.811 96.7716 126.482 96.6426 127.334C96.5136 128.159 96.4491 129.295 96.4491 130.74V137.242C96.4491 138.687 96.5136 139.835 96.6426 140.686C96.7716 141.512 97.0554 142.17 97.4941 142.66C97.9327 143.15 98.6165 143.395 99.5453 143.395ZM109.469 122.806H112.295V125.128C113.043 124.302 113.868 123.657 114.772 123.193C115.7 122.702 116.668 122.457 117.674 122.457C118.784 122.457 119.635 122.87 120.229 123.696C120.822 124.521 121.119 125.695 121.119 127.218V145.176H118.293V127.837C118.293 126.702 118.113 125.889 117.752 125.399C117.416 124.908 116.887 124.663 116.165 124.663C115.546 124.663 114.901 124.857 114.23 125.244C113.559 125.605 112.914 126.108 112.295 126.753V145.176H109.469V122.806ZM130.917 145.524C129.473 145.524 128.312 145.24 127.434 144.673C126.557 144.105 125.912 143.189 125.499 141.925C125.086 140.66 124.88 138.945 124.88 136.777V131.127C124.88 128.933 125.086 127.218 125.499 125.979C125.938 124.715 126.596 123.812 127.473 123.27C128.376 122.728 129.537 122.457 130.956 122.457C132.504 122.457 133.691 122.793 134.517 123.463C135.368 124.109 135.949 125.089 136.258 126.405C136.594 127.721 136.762 129.488 136.762 131.707V133.72H127.705V137.629C127.705 139.77 127.95 141.267 128.441 142.118C128.931 142.97 129.756 143.395 130.917 143.395C131.898 143.395 132.646 143.086 133.162 142.467C133.704 141.847 133.975 140.725 133.975 139.099V137.551H136.723V138.79C136.723 140.957 136.271 142.621 135.368 143.782C134.465 144.943 132.982 145.524 130.917 145.524ZM133.975 132.094V130.236C133.975 128.895 133.898 127.837 133.743 127.063C133.614 126.289 133.33 125.682 132.891 125.244C132.453 124.805 131.795 124.586 130.917 124.586C130.118 124.586 129.485 124.766 129.021 125.128C128.557 125.463 128.221 126.069 128.015 126.947C127.808 127.798 127.705 129.011 127.705 130.585V132.094H133.975ZM145.684 145.524C143.929 145.524 142.51 144.956 141.426 143.821C140.369 142.686 139.762 141.138 139.607 139.177L141.968 138.441C142.123 140.144 142.523 141.396 143.168 142.196C143.813 142.995 144.716 143.395 145.877 143.395C146.858 143.395 147.606 143.124 148.122 142.583C148.664 142.015 148.935 141.228 148.935 140.222C148.935 138.751 148.032 137.255 146.226 135.732L143.168 133.1C142.11 132.223 141.336 131.359 140.846 130.507C140.356 129.656 140.111 128.65 140.111 127.489C140.111 125.915 140.588 124.689 141.543 123.812C142.523 122.909 143.826 122.457 145.452 122.457C147.103 122.457 148.367 122.986 149.244 124.044C150.147 125.102 150.651 126.534 150.754 128.34L148.741 128.998C148.586 126.057 147.529 124.586 145.568 124.586C144.69 124.586 143.994 124.831 143.478 125.321C142.962 125.786 142.704 126.444 142.704 127.295C142.704 127.992 142.833 128.598 143.091 129.114C143.349 129.63 143.826 130.198 144.523 130.817L147.696 133.642C148.909 134.726 149.825 135.745 150.444 136.7C151.089 137.629 151.412 138.777 151.412 140.144C151.412 141.847 150.896 143.176 149.864 144.131C148.832 145.06 147.438 145.524 145.684 145.524Z" fill="black"/>
</svg>
