<svg width="446" height="626" viewBox="0 0 446 626" fill="none" xmlns="http://www.w3.org/2000/svg">
<line x1="82" y1="8" x2="82" y2="626" stroke="#5F20C8" stroke-width="2"/>
<path d="M103.207 8.48107H130.483V92.9646H180.69V8.48107H207.967V204H180.69V112.516H130.483V204H103.207V8.48107ZM233.685 8.48107H309.479V28.7571H260.961V93.4473H300.306V112.758H260.961V184.448H309.961V204H233.685V8.48107ZM357.086 134.965L314.844 8.48107H340.189L370.12 102.861L399.569 8.48107H425.155L383.155 134.965V204H357.086V134.965Z" fill="#1C1C1C"/>
<path d="M102.655 217.481H129.449V413H102.655V217.481ZM177.736 237.757H144.667V217.481H237.116V237.757H205.012V413H177.736V237.757ZM250.171 271.792C254.999 271.47 258.378 269.217 260.309 265.033C262.24 260.849 263.206 254.091 263.206 244.757H250.413V217.481H278.654V240.895C278.654 253.93 276.804 263.826 273.103 270.585C269.401 277.344 263.286 280.964 254.758 281.447L250.171 271.792ZM342.622 415.172C326.208 415.172 313.657 410.103 304.967 399.965C296.438 389.827 291.691 375.908 290.725 358.206L314.863 351.689C315.668 364.241 318.082 374.379 322.105 382.103C326.289 389.827 333.128 393.689 342.622 393.689C349.703 393.689 355.013 391.758 358.554 387.896C362.255 383.873 364.105 378.161 364.105 370.758C364.105 362.712 362.416 356.034 359.036 350.724C355.657 345.413 350.266 339.54 342.864 333.103L310.036 304.137C303.438 298.344 298.61 292.148 295.553 285.551C292.656 278.792 291.208 270.585 291.208 260.93C291.208 246.608 295.312 235.504 303.519 227.619C311.726 219.734 322.91 215.791 337.071 215.791C352.519 215.791 364.186 219.895 372.071 228.102C379.956 236.309 384.703 249.022 386.312 266.24L363.14 272.516C362.335 261.091 360.082 252.32 356.381 246.205C352.841 239.93 346.404 236.792 337.071 236.792C330.151 236.792 324.841 238.642 321.139 242.343C317.438 245.884 315.588 251.194 315.588 258.275C315.588 264.068 316.553 268.976 318.484 272.999C320.415 276.861 323.714 280.803 328.381 284.826L361.45 313.792C369.979 321.356 376.738 329.562 381.726 338.413C386.876 347.264 389.45 357.321 389.45 368.586C389.45 382.908 385.105 394.253 376.416 402.621C367.726 410.988 356.462 415.172 342.622 415.172Z" fill="#1C1C1C"/>
<path d="M99.345 430.481H126.138L160.656 589.069L195.415 430.481H221.967L225.587 626H203.622L201.449 484.068L168.38 626H152.932L120.104 484.068L117.931 626H95.7243L99.345 430.481ZM250.729 430.481H326.523V450.757H278.005V515.447H317.35V534.758H278.005V606.448H327.005V626H250.729V430.481Z" fill="#1C1C1C"/>
<path d="M340.819 597.276H366.647V626H340.819V597.276Z" fill="#5F20C8"/>
<path d="M16.3501 182.699L16.3501 174.909C16.3501 171.593 17.2743 169.246 19.1228 167.867C20.942 166.488 23.436 165.798 26.6049 165.798L41.393 165.798C44.738 165.798 47.3494 166.473 49.2272 167.823C51.0757 169.143 52 171.432 52 174.689L52 182.699L16.3501 182.699ZM50.1075 174.821C50.1075 173.002 49.726 171.608 48.9632 170.64C48.1709 169.671 47.1293 169.026 45.8383 168.703C44.5473 168.38 42.9775 168.219 41.129 168.219L26.781 168.219C23.9348 168.219 21.8076 168.703 20.3992 169.671C18.9908 170.61 18.2866 172.356 18.2866 174.909L18.2866 180.322L50.1075 180.322L50.1075 174.821ZM16.3501 160.006L16.3501 147.683L18.2866 147.683L18.2866 157.586L32.5906 157.586L32.5906 149.443L34.4391 149.443L34.4391 157.586L50.1075 157.586L50.1075 147.551L52 147.551L52 160.006L16.3501 160.006ZM16.3501 144.929L16.3501 142.552L47.8188 135.158L16.3501 128.248L16.3501 125.915L52 134.058L52 136.302L16.3501 144.929ZM16.3501 121.582L16.3501 109.258L18.2866 109.258L18.2866 119.161L32.5906 119.161L32.5906 111.019L34.4391 111.019L34.4391 119.161L50.1075 119.161L50.1075 109.126L52 109.126L52 121.581L16.3501 121.582ZM16.3501 104.259L16.3501 101.883L50.1075 101.883L50.1075 91.0996L52 91.0996L52 104.259L16.3501 104.259ZM52.4841 79.8723C52.4841 83.1292 51.5599 85.4178 49.7114 86.7382C47.8335 88.0292 45.2221 88.6748 41.8772 88.6748L26.2968 88.6748C23.0106 88.6748 20.4725 88.0146 18.6827 86.6942C16.8635 85.3445 15.9539 83.0705 15.9539 79.8723C15.9539 76.7034 16.8635 74.4441 18.6827 73.0944C20.5019 71.7447 23.0399 71.0698 26.2968 71.0698L41.9212 71.0698C45.2661 71.0698 47.8628 71.73 49.7114 73.0504C51.5599 74.3414 52.4841 76.6154 52.4841 79.8723ZM50.5036 79.8723C50.5036 77.4663 49.8141 75.8085 48.435 74.8989C47.0559 73.96 45.0461 73.4905 42.4053 73.4905L25.9447 73.4905C23.304 73.4905 21.3088 73.96 19.9591 74.8989C18.6093 75.8085 17.9345 77.4663 17.9345 79.8723C17.9345 82.2783 18.6093 83.9508 19.9591 84.8897C21.3088 85.7993 23.304 86.2541 25.9447 86.2541L42.4053 86.2541C45.0754 86.2541 47.1 85.7993 48.479 84.8897C49.8287 83.9508 50.5036 82.2783 50.5036 79.8723ZM16.35 65.2327L16.35 56.8704C16.35 53.8482 17.1569 51.721 18.7707 50.4886C20.3845 49.2269 22.6438 48.5961 25.5486 48.5961C28.2774 48.5961 30.5367 49.2416 32.3265 50.5326C34.087 51.7943 34.9672 53.8922 34.9672 56.8264L34.9672 62.8561L52 62.8561L52 65.2327L16.35 65.2327ZM33.1187 57.3545C33.1187 55.1539 32.5466 53.5548 31.4022 52.5572C30.2286 51.5596 28.2774 51.0608 25.5486 51.0608C23.6414 51.0608 22.1597 51.2662 21.1034 51.6769C20.0471 52.0877 19.2989 52.7479 18.8587 53.6575C18.4186 54.5377 18.1986 55.7554 18.1986 57.3105L18.1986 62.8561L33.1187 62.8561L33.1187 57.3545ZM16.35 43.9153L16.35 31.5919L18.2866 31.5919L18.2866 41.4946L32.5906 41.4946L32.5906 33.3524L34.4391 33.3524L34.4391 41.4946L50.1075 41.4946L50.1075 31.4598L52 31.4598L52 43.9153L16.35 43.9153ZM16.35 26.593L16.35 17.9666C16.35 15.0325 17.1276 12.9932 18.6827 11.8489C20.2378 10.7046 22.3944 10.1324 25.1525 10.1324C27.4705 10.1324 29.3777 10.5139 30.8741 11.2768C32.3705 12.0103 33.2801 13.3747 33.6029 15.3699L52 9.6483L52 12.025L34.043 17.5705L34.043 24.2164L52 24.2164L52 26.593L16.35 26.593ZM32.1945 18.0546C32.1945 15.9127 31.6223 14.4456 30.478 13.6534C29.3043 12.8612 27.5292 12.4651 25.1525 12.4651C22.7465 12.4651 21.0007 12.8759 19.915 13.6974C18.8001 14.4897 18.2426 15.9567 18.2426 18.0987L18.2426 24.2164L32.1945 24.2164L32.1945 18.0546Z" fill="#5F20C8"/>
<path d="M16.3501 543.699L16.3501 535.909C16.3501 532.593 17.2743 530.246 19.1228 528.867C20.942 527.488 23.436 526.798 26.6049 526.798L41.393 526.798C44.738 526.798 47.3494 527.473 49.2272 528.823C51.0757 530.143 52 532.432 52 535.689L52 543.699L16.3501 543.699ZM50.1075 535.821C50.1075 534.002 49.726 532.608 48.9632 531.64C48.1709 530.671 47.1293 530.026 45.8383 529.703C44.5473 529.38 42.9775 529.219 41.129 529.219L26.781 529.219C23.9348 529.219 21.8076 529.703 20.3992 530.671C18.9908 531.61 18.2866 533.356 18.2866 535.909L18.2866 541.322L50.1075 541.322L50.1075 535.821ZM16.3501 521.006L16.3501 508.683L18.2866 508.683L18.2866 518.586L32.5906 518.586L32.5906 510.443L34.4391 510.443L34.4391 518.586L50.1075 518.586L50.1075 508.551L52 508.551L52 521.006L16.3501 521.006ZM52.4401 496.554C52.4401 501.806 49.3593 504.667 43.1975 505.136L42.5374 503.068C45.1781 502.716 47.1586 502.085 48.479 501.175C49.7994 500.236 50.4596 498.681 50.4596 496.51C50.4596 492.725 48.5524 490.832 44.738 490.832C43.2709 490.832 41.9359 491.199 40.7329 491.933C39.5299 492.666 38.1215 493.84 36.5077 495.454L30.0379 501.968C27.9546 504.051 25.6953 505.092 23.26 505.092C20.942 505.092 19.1522 504.388 17.8905 502.98C16.5995 501.542 15.9539 499.635 15.9539 497.258C15.9539 494.706 16.6435 492.74 18.0225 491.361C19.3722 489.982 21.6609 489.189 24.8884 488.984L25.3726 491.008C22.7612 491.214 20.8686 491.786 19.695 492.725C18.492 493.635 17.8905 495.131 17.8905 497.214C17.8905 498.916 18.3306 500.295 19.2108 501.351C20.0618 502.378 21.3528 502.892 23.0839 502.892C24.0229 502.892 24.9324 502.701 25.8127 502.32C26.6636 501.909 27.5585 501.234 28.4974 500.295L34.8352 493.869C36.449 492.226 38.0481 490.935 39.6325 489.996C41.217 489.057 42.8748 488.588 44.6059 488.588C47.188 488.588 49.1392 489.307 50.4596 490.744C51.7799 492.182 52.4401 494.119 52.4401 496.554ZM16.3501 483.74L16.3501 481.363L52 481.363L52 483.74L16.3501 483.74ZM52.4841 466.925C52.4841 470.094 51.5452 472.309 49.6673 473.571C47.7895 474.832 45.1194 475.463 41.6571 475.463L26.5169 475.463C23.1133 475.463 20.5019 474.832 18.6827 473.571C16.8635 472.28 15.9539 470.02 15.9539 466.793C15.9539 463.829 16.8195 461.717 18.5507 460.455C20.2818 459.193 22.8052 458.562 26.1208 458.562L27.3531 458.562L27.3531 460.851L25.9887 460.851C23.2306 460.851 21.2061 461.291 19.915 462.171C18.5947 463.022 17.9345 464.563 17.9345 466.793C17.9345 469.228 18.6534 470.886 20.0911 471.766C21.5288 472.617 23.6414 473.043 26.4289 473.043L41.9652 473.043C44.782 473.043 46.9092 472.588 48.347 471.678C49.7847 470.769 50.5036 469.125 50.5036 466.749C50.5036 464.519 49.8141 462.964 48.435 462.083C47.0266 461.203 44.914 460.763 42.0972 460.763L36.8598 460.763L36.8598 466.441L35.0113 466.441L35.0113 458.518L52 458.518L52 460.059L47.9949 460.411C49.462 460.88 50.5769 461.643 51.3398 462.7C52.1027 463.727 52.4841 465.135 52.4841 466.925ZM16.35 452.279L16.35 450.387L46.4544 438.283L16.35 438.283L16.35 436.171L52 436.171L52 438.063L21.8516 450.166L52 450.166L52 452.279L16.35 452.279ZM16.35 429.672L16.35 417.349L18.2866 417.349L18.2866 427.252L32.5906 427.252L32.5906 419.109L34.4391 419.109L34.4391 427.252L50.1075 427.252L50.1075 417.217L52 417.217L52 429.672L16.35 429.672ZM16.35 412.35L16.35 403.724C16.35 400.789 17.1276 398.75 18.6827 397.606C20.2378 396.462 22.3944 395.889 25.1525 395.889C27.4705 395.889 29.3777 396.271 30.8741 397.034C32.3705 397.767 33.2801 399.132 33.6029 401.127L52 395.405L52 397.782L34.043 403.327L34.043 409.973L52 409.973L52 412.35L16.35 412.35ZM32.1945 403.812C32.1945 401.67 31.6223 400.203 30.478 399.41C29.3043 398.618 27.5292 398.222 25.1525 398.222C22.7465 398.222 21.0007 398.633 19.915 399.454C18.8001 400.247 18.2426 401.714 18.2426 403.856L18.2426 409.973L32.1945 409.973L32.1945 403.812Z" fill="#5F20C8"/>
<path d="M16.3501 624.504L16.3501 622.391L47.2907 617.154L17.1423 611.432L17.1423 609.143L47.2907 603.246L16.3501 598.492L16.3501 596.424L52 602.189L52 604.214L20.7953 610.288L52 616.229L52 618.298L16.3501 624.504ZM16.3501 591.668L16.3501 579.345L18.2866 579.345L18.2866 589.247L32.5906 589.247L32.5906 581.105L34.4391 581.105L34.4391 589.247L50.1075 589.247L50.1075 579.213L52 579.213L52 591.668L16.3501 591.668ZM16.3501 574.346L16.3501 566.996C16.3501 563.944 17.1423 561.817 18.7267 560.614C20.3112 559.382 22.4824 558.765 25.2405 558.765C27.0304 558.765 28.6441 559.073 30.0819 559.69C31.4903 560.306 32.3852 561.391 32.7666 562.947C33.3241 561.098 34.4391 559.807 36.1116 559.073C37.784 558.34 39.6179 557.973 41.6131 557.973C44.8113 557.973 47.3494 558.531 49.2272 559.646C51.0757 560.731 52 562.829 52 565.939L52 574.346L16.3501 574.346ZM31.9744 565.939C31.9744 564.12 31.3729 562.844 30.1699 562.11C28.9669 561.377 27.3238 561.01 25.2405 561.01C22.9812 561.01 21.2648 561.465 20.0911 562.374C18.8881 563.255 18.2866 564.986 18.2866 567.568L18.2866 571.969L31.9744 571.969L31.9744 565.939ZM50.1075 566.247C50.1075 564.692 49.8141 563.489 49.2272 562.638C48.6111 561.788 47.7015 561.186 46.4985 560.834C45.2955 560.482 43.6817 560.306 41.6571 560.306C39.3098 560.306 37.4319 560.746 36.0235 561.626C34.5858 562.477 33.8669 563.9 33.8669 565.895L33.8669 571.969L50.1075 571.969L50.1075 566.247Z" fill="#5F20C8"/>
<path d="M52.4841 296.738C52.4841 298.587 52.1174 300.156 51.3838 301.447C50.6503 302.709 49.6673 303.663 48.435 304.308C47.1733 304.924 45.7943 305.232 44.2979 305.232C42.6254 305.232 40.9529 304.792 39.2805 303.912C37.608 303.002 35.6861 301.447 33.5148 299.247C30.7861 300.949 28.7615 302.108 27.4411 302.724C26.0914 303.311 24.6977 303.604 23.26 303.604C20.942 303.604 19.1522 302.929 17.8905 301.579C16.5995 300.23 15.9539 298.396 15.9539 296.078C15.9539 293.848 16.5114 292.102 17.6264 290.84C18.7414 289.579 20.2525 288.948 22.1597 288.948C23.8615 288.948 25.6513 289.623 27.5292 290.972C29.3777 292.293 31.4609 294.259 33.7789 296.87L46.0143 289.124C44.8407 288.185 43.3149 287.393 41.4371 286.747C39.5299 286.072 37.9014 285.72 36.5517 285.691L36.5517 283.534C38.1655 283.534 40.0287 283.93 42.1412 284.723C44.2538 285.486 46.0437 286.512 47.5107 287.804C48.5084 287.041 49.1979 286.322 49.5793 285.647C49.9314 284.972 50.1075 284.224 50.1075 283.402L52.2641 283.402C52.2641 283.637 52.2347 283.96 52.176 284.371C51.9707 286.16 50.8997 287.774 48.9632 289.212C49.9901 290.151 50.841 291.266 51.5159 292.557C52.1614 293.819 52.4841 295.212 52.4841 296.738ZM32.3265 297.706C30.4193 295.682 28.6442 294.097 27.001 292.953C25.3286 291.809 23.6854 291.236 22.0717 291.236C20.7513 291.236 19.739 291.677 19.0348 292.557C18.3013 293.437 17.9345 294.64 17.9345 296.166C17.9345 297.838 18.4333 299.115 19.4309 299.995C20.3992 300.875 21.6609 301.315 23.216 301.315C24.4777 301.315 25.7687 301.051 27.089 300.523C28.3801 299.966 30.1259 299.027 32.3265 297.706ZM50.5036 296.738C50.5036 295.564 50.2688 294.479 49.7994 293.481C49.3006 292.483 48.523 291.471 47.4667 290.444L35.1873 298.278C37.0065 299.98 38.6203 301.183 40.0287 301.887C41.4371 302.562 42.8748 302.9 44.3419 302.9C46.0143 302.9 47.4667 302.401 48.6991 301.403C49.9021 300.406 50.5036 298.851 50.5036 296.738Z" fill="#5F20C8"/>
</svg>
