<svg width="201" height="200" viewBox="0 0 201 200" fill="none" xmlns="http://www.w3.org/2000/svg">
<rect width="201" height="200" fill="#E5E5E5"/>
<g id="click-circle">
<g id="arrow">
<path id="Vector" d="M103.306 109.555V86" stroke="#5F20C8" stroke-width="1.44217" stroke-linecap="round" stroke-linejoin="round"/>
<path id="Vector_2" d="M93 99.2499L103.306 109.555L113.611 99.2499" stroke="#5F20C8" stroke-width="1.44217" stroke-linecap="round" stroke-linejoin="round"/>
</g>
<g id="click-me">
<path id="-" d="M114.045 20.0459H106.896V17.834H114.045V20.0459Z" fill="#5F20C8"/>
<path id="c" d="M135.2 34.8067C136.056 35.256 136.941 35.3891 137.853 35.2062C138.765 35.0232 139.46 34.5607 139.938 33.8188L142.207 35.0101C141.742 35.7916 141.064 36.4116 140.172 36.8702C139.281 37.3288 138.294 37.5496 137.211 37.5327C136.136 37.5203 135.124 37.2645 134.173 36.7653C132.262 35.7623 131.073 34.328 130.608 32.4624C130.155 30.5926 130.51 28.5509 131.672 26.3373L131.883 25.9352C132.6 24.569 133.488 23.4857 134.548 22.6853C135.608 21.8849 136.759 21.4358 138.001 21.338C139.252 21.2446 140.518 21.5338 141.798 22.2055C143.371 23.0315 144.43 24.188 144.973 25.6751C145.524 27.1668 145.44 28.6831 144.719 30.224L142.449 29.0327C142.857 28.0884 142.901 27.1632 142.583 26.2571C142.277 25.3469 141.671 24.6535 140.763 24.177C139.544 23.5371 138.365 23.4812 137.228 24.0092C136.104 24.5331 135.106 25.6251 134.235 27.2854L133.996 27.7393C133.148 29.3563 132.827 30.7762 133.034 31.999C133.242 33.2218 133.964 34.1577 135.2 34.8067Z" fill="#5F20C8"/>
<path id="l" d="M149.109 47.0009L147.081 45.2038L162.001 28.3624L164.03 30.1594L149.109 47.0009Z" fill="#5F20C8"/>
<path id="i" d="M160.376 60.2084L158.837 57.9782L171.881 48.9746L173.42 51.2048L160.376 60.2084ZM175.216 46.4055C175.577 46.1559 175.958 46.0536 176.357 46.0986C176.761 46.1517 177.113 46.3952 177.413 46.8292C177.712 47.2632 177.815 47.6787 177.721 48.0757C177.627 48.4727 177.4 48.796 177.038 49.0457C176.676 49.2953 176.297 49.3908 175.901 49.3322C175.504 49.2736 175.156 49.0273 174.857 48.5933C174.557 48.1593 174.45 47.7466 174.536 47.3551C174.628 46.9717 174.854 46.6552 175.216 46.4055Z" fill="#5F20C8"/>
<path id="c_2" d="M169.669 74.3085C170.011 75.2124 170.585 75.8984 171.389 76.3663C172.193 76.8342 173.02 76.9489 173.869 76.7102L174.778 79.1071C173.912 79.3835 172.993 79.3978 172.022 79.15C171.05 78.9021 170.165 78.4128 169.366 77.682C168.57 76.9603 167.981 76.0972 167.6 75.0928C166.835 73.0749 166.897 71.2133 167.785 69.5081C168.687 67.8085 170.306 66.5155 172.643 65.629L173.068 65.4679C174.511 64.9208 175.894 64.6991 177.218 64.8027C178.542 64.9064 179.701 65.3335 180.696 66.0842C181.695 66.844 182.45 67.8996 182.963 69.251C183.593 70.9128 183.618 72.4803 183.038 73.9535C182.462 75.4358 181.394 76.5148 179.832 77.1904L178.923 74.7935C179.854 74.3569 180.501 73.6938 180.864 72.8043C181.239 71.9206 181.244 70.9993 180.881 70.0405C180.393 68.7531 179.548 67.9298 178.346 67.5708C177.157 67.2175 175.686 67.3733 173.933 68.0382L173.454 68.22C171.746 68.8675 170.565 69.7177 169.909 70.7706C169.254 71.8234 169.173 73.0027 169.669 74.3085Z" fill="#5F20C8"/>
<path id="k" d="M178.98 89.3171L177.016 87.8439L171.49 88.5148L171.163 85.8246L193.499 83.1126L193.826 85.8028L180.317 87.4431L182.222 88.6726L187.994 92.9445L188.391 96.2164L181.075 90.8924L172.744 98.8394L172.36 95.6839L178.98 89.3171Z" fill="#5F20C8"/>
<path id="m" d="M185.353 123.621L183.683 123.066C184.549 124.637 184.633 126.345 183.933 128.19C183.147 130.262 181.818 131.372 179.945 131.518C180.47 132.281 180.803 133.139 180.944 134.09C181.081 135.051 180.945 136.07 180.536 137.147C179.303 140.398 176.955 141.398 173.492 140.147L163.562 136.381L164.523 133.847L174.303 137.556C175.362 137.958 176.243 138.015 176.947 137.729C177.66 137.446 178.233 136.733 178.666 135.592C179.023 134.651 179.036 133.763 178.705 132.928C178.384 132.096 177.767 131.449 176.856 130.989L167.022 127.259L167.988 124.712L177.699 128.394C179.854 129.212 181.331 128.566 182.131 126.456C182.761 124.795 182.485 123.389 181.301 122.241L170.481 118.137L171.442 115.603L186.262 121.224L185.353 123.621Z" fill="#5F20C8"/>
<path id="e" d="M158.987 141.289C160.207 139.521 161.779 138.481 163.702 138.171C165.633 137.866 167.57 138.385 169.515 139.728L169.925 140.011C171.219 140.904 172.203 141.945 172.878 143.134C173.554 144.337 173.873 145.578 173.833 146.856C173.796 148.147 173.42 149.311 172.704 150.348C171.534 152.044 170.065 152.976 168.299 153.145C166.533 153.315 164.609 152.681 162.528 151.244L161.599 150.603L167.699 141.767C166.391 140.911 165.092 140.567 163.802 140.733C162.516 140.912 161.489 141.557 160.724 142.666C160.18 143.453 159.88 144.231 159.825 145C159.769 145.768 159.865 146.541 160.112 147.317L158.111 147.947C157.186 145.694 157.478 143.475 158.987 141.289ZM170.872 149.083C171.493 148.183 171.685 147.2 171.448 146.134C171.218 145.074 170.563 144.064 169.481 143.104L164.971 149.638L165.14 149.754C166.317 150.472 167.404 150.772 168.4 150.652C169.404 150.538 170.228 150.015 170.872 149.083Z" fill="#5F20C8"/>
<path id="t" d="M142.239 181.566L140.455 178.168L137.835 179.543L136.862 177.689L139.482 176.313L134.914 167.61C134.619 167.048 134.28 166.686 133.896 166.523C133.518 166.369 133.047 166.439 132.485 166.734C132.209 166.879 131.855 167.131 131.426 167.489L130.405 165.543C130.945 165.039 131.514 164.63 132.11 164.317C133.182 163.754 134.161 163.654 135.046 164.017C135.931 164.38 136.687 165.157 137.313 166.351L141.881 175.054L144.436 173.713L145.41 175.568L142.855 176.909L144.638 180.307L142.239 181.566Z" fill="#5F20C8"/>
<path id="o" d="M126.53 176.016C126.901 177.524 126.942 178.952 126.651 180.301C126.35 181.653 125.754 182.785 124.863 183.699C123.962 184.615 122.834 185.24 121.478 185.574C119.383 186.091 117.511 185.783 115.864 184.65C114.208 183.519 113.082 181.75 112.489 179.341L112.443 179.156C112.074 177.658 112.031 176.241 112.315 174.903C112.592 173.578 113.184 172.451 114.092 171.523C114.991 170.598 116.132 169.965 117.516 169.623C119.602 169.109 121.474 169.417 123.13 170.548C124.777 171.681 125.895 173.442 126.484 175.831L126.53 176.016ZM123.807 176.355C123.387 174.649 122.655 173.376 121.614 172.536C120.562 171.699 119.373 171.444 118.046 171.771C116.709 172.101 115.775 172.884 115.245 174.121C114.718 175.367 114.687 176.934 115.152 178.821C115.568 180.509 116.307 181.775 117.37 182.619C118.426 183.475 119.618 183.74 120.945 183.412C122.244 183.092 123.165 182.317 123.706 181.087C124.248 179.858 124.282 178.28 123.807 176.355Z" fill="#5F20C8"/>
<path id="g" d="M87.5242 179.29C86.9329 181.689 85.9085 183.458 84.4509 184.597C82.9909 185.746 81.346 186.095 79.516 185.644C77.6386 185.181 76.3372 184.156 75.6119 182.57L75.0632 184.245L72.6596 183.652L76.3615 168.633C76.8523 166.642 77.8317 165.219 79.2997 164.363C80.7582 163.506 82.4831 163.323 84.4743 163.813C85.5837 164.087 86.6109 164.591 87.556 165.327C88.5011 166.063 89.1517 166.912 89.5078 167.875L87.7533 169.117C86.9685 167.446 85.7607 166.409 84.1298 166.007C82.8498 165.691 81.7654 165.806 80.8766 166.351C79.9784 166.894 79.368 167.82 79.0455 169.129L78.7195 170.451C80.0711 169.497 81.6572 169.244 83.4777 169.693C85.2792 170.137 86.5607 171.222 87.3219 172.949C88.0738 174.673 88.1412 176.787 87.5242 179.29ZM84.9524 178.339C85.38 176.604 85.361 175.151 84.8953 173.98C84.4272 172.819 83.5531 172.08 82.2731 171.765C80.6137 171.356 79.2095 171.809 78.0604 173.125L76.3286 180.151C76.7724 181.82 77.8002 182.852 79.4121 183.25C80.6921 183.565 81.8152 183.314 82.7812 182.496C83.7472 181.678 84.4709 180.292 84.9524 178.339Z" fill="#5F20C8"/>
<path id="e_2" d="M66.4351 163.18C68.3375 164.179 69.5586 165.614 70.0983 167.485C70.6336 169.365 70.352 171.352 69.2538 173.444L69.0223 173.885C68.2916 175.277 67.3767 176.38 66.2774 177.192C65.1649 178.009 63.972 178.475 62.6986 178.59C61.412 178.709 60.211 178.475 59.0955 177.89C57.271 176.932 56.1683 175.587 55.7874 173.854C55.4065 172.121 55.8038 170.135 56.9792 167.895L57.5034 166.897L67.0108 171.886C67.7023 170.485 67.888 169.154 67.5677 167.894C67.2342 166.638 66.4708 165.697 65.2775 165.071C64.4301 164.626 63.6216 164.422 62.8521 164.46C62.0826 164.497 61.3275 164.685 60.587 165.024L59.7204 163.114C61.8449 161.924 64.0832 161.946 66.4351 163.18ZM60.1302 175.918C61.0987 176.427 62.0976 176.499 63.1269 176.135C64.1517 175.779 65.0755 175.007 65.8982 173.817L58.8682 170.127L58.7729 170.309C58.2022 171.565 58.0361 172.68 58.2746 173.654C58.5086 174.637 59.1272 175.392 60.1302 175.918Z" fill="#5F20C8"/>
<path id="t_2" d="M38.9417 168.085L41.4866 165.212L39.2718 163.25L40.6609 161.682L42.8757 163.644L49.3936 156.287C49.8145 155.812 50.0332 155.367 50.0495 154.951C50.0594 154.542 49.8267 154.127 49.3516 153.706C49.1177 153.499 48.7572 153.258 48.2702 152.983L49.7272 151.338C50.3903 151.665 50.9741 152.051 51.4785 152.498C52.3849 153.301 52.8255 154.181 52.8003 155.137C52.7751 156.093 52.3157 157.076 51.422 158.084L44.9041 165.442L47.0641 167.355L45.6751 168.923L43.5151 167.009L40.9701 169.882L38.9417 168.085Z" fill="#5F20C8"/>
<path id="i_2" d="M32.5567 124.271L33.5176 126.805L18.698 132.426L17.737 129.892L32.5567 124.271ZM14.845 134.122C14.4341 134.278 14.0404 134.286 13.6638 134.147C13.2838 133.999 13.0003 133.678 12.8133 133.185C12.6263 132.692 12.6258 132.264 12.8119 131.901C12.998 131.538 13.2965 131.278 13.7074 131.122C14.1183 130.967 14.5092 130.965 14.8801 131.116C15.251 131.268 15.53 131.591 15.717 132.084C15.904 132.577 15.909 133.003 15.732 133.363C15.5516 133.713 15.2559 133.966 14.845 134.122Z" fill="#5F20C8"/>
<path id="n" d="M13.5278 113.728L15.4949 113.401C13.8366 112.382 12.8897 110.904 12.6543 108.965C12.2505 105.64 13.9228 103.735 17.671 103.25L28.0682 101.988L28.3949 104.678L17.9831 105.942C16.85 106.089 16.0432 106.453 15.5627 107.033C15.081 107.603 14.9055 108.426 15.0362 109.502C15.1421 110.374 15.4678 111.112 16.0132 111.715C16.5586 112.317 17.2317 112.757 18.0326 113.034L29.2442 111.672L29.5708 114.362L13.8368 116.273L13.5278 113.728Z" fill="#5F20C8"/>
<path id="t_3" d="M14.9173 66.7202L18.5058 68.0811L19.555 65.3144L21.5137 66.0572L20.4644 68.8239L29.6548 72.3093C30.2483 72.5344 30.7424 72.5809 31.1373 72.4486C31.523 72.3129 31.8283 71.9483 32.0534 71.3547C32.1642 71.0625 32.2618 70.64 32.3462 70.0871L34.4007 70.8663C34.3305 71.6021 34.1759 72.285 33.937 72.9151C33.5076 74.0473 32.8414 74.7712 31.9384 75.0867C31.0354 75.4023 29.9539 75.3211 28.6938 74.8432L19.5034 71.3578L18.4801 74.056L16.5215 73.3132L17.5448 70.615L13.9563 69.254L14.9173 66.7202Z" fill="#5F20C8"/>
<path id="o_2" d="M30.356 60.4576C29.0781 59.5756 28.1008 58.5331 27.424 57.3303C26.7528 56.1195 26.4478 54.8766 26.5091 53.6017C26.5758 52.3188 27.0059 51.1027 27.7992 49.9534C29.0252 48.1772 30.6302 47.167 32.6143 46.9228C34.604 46.6705 36.6195 47.2489 38.6609 48.6579L38.8176 48.7661C40.0875 49.6426 41.0595 50.6755 41.7338 51.8647C42.4055 53.0404 42.7093 54.2765 42.645 55.573C42.5863 56.8614 42.1519 58.0924 41.342 59.2658C40.1216 61.0339 38.5165 62.0441 36.5268 62.2964C34.5427 62.5406 32.538 61.9638 30.5127 60.5658L30.356 60.4576ZM32.1689 58.3984C33.6156 59.397 35.0072 59.865 36.3436 59.8026C37.6856 59.7322 38.745 59.1344 39.5216 58.0092C40.3038 56.876 40.4831 55.6708 40.0595 54.3935C39.6278 53.1107 38.6123 51.9173 37.013 50.8133C35.5824 49.8258 34.1893 49.3686 32.8337 49.4415C31.4756 49.5008 30.4082 50.0931 29.6316 51.2182C28.8716 52.3193 28.6966 53.5097 29.1066 54.7895C29.5167 56.0693 30.5374 57.2723 32.1689 58.3984Z" fill="#5F20C8"/>
<path id="u" d="M54.6101 42.242C54.6431 43.8698 53.8958 45.3603 52.368 46.7138C51.1035 47.8341 49.8148 48.3234 48.502 48.1818C47.1901 48.0263 45.8926 47.2318 44.6096 45.7983L37.7711 38.0793L39.7996 36.2822L46.5894 43.9464C48.1825 45.7446 49.71 45.9961 51.1719 44.7009C52.7216 43.3281 53.2406 41.8375 52.7291 40.2293L45.0845 31.6002L47.1129 29.8032L57.6231 41.6668L55.6934 43.3764L54.6101 42.242Z" fill="#5F20C8"/>
<path id="c_3" d="M66.4967 34.2893C67.3528 33.84 67.9646 33.1881 68.3322 32.3334C68.6998 31.4788 68.7139 30.6442 68.3747 29.8296L70.6445 28.6383C71.0233 29.4652 71.1483 30.3757 71.0193 31.3698C70.8904 32.3639 70.5113 33.3018 69.8822 34.1834C69.2617 35.0605 68.4758 35.7487 67.5247 36.2479C65.6137 37.2509 63.7582 37.414 61.9583 36.7374C60.1626 36.0477 58.6838 34.596 57.522 32.3823L57.3109 31.9802C56.5939 30.614 56.207 29.2675 56.1503 27.9407C56.0936 26.6139 56.3779 25.4114 57.0032 24.3333C57.6371 23.2506 58.594 22.3734 59.8737 21.7017C61.4475 20.8758 63.0005 20.6617 64.5328 21.0597C66.0738 21.4531 67.2737 22.3839 68.1326 23.8522L65.8627 25.0435C65.317 24.1719 64.5808 23.6097 63.6542 23.3572C62.7316 23.0914 61.8164 23.1967 60.9085 23.6733C59.6892 24.3132 58.9738 25.2511 58.7623 26.4871C58.5548 27.7099 58.8868 29.1514 59.7581 30.8116L59.9964 31.2656C60.845 32.8826 61.8315 33.9531 62.9557 34.477C64.0799 35.0009 65.2602 34.9383 66.4967 34.2893Z" fill="#5F20C8"/>
<path id="h" d="M76.8774 17.2845C77.6908 15.5653 79.0314 14.4755 80.8993 14.0151C84.1516 13.2135 86.2442 14.6439 87.1771 18.3064L89.6836 28.4756L87.0524 29.1242L84.5424 18.9407C84.2594 17.8336 83.8013 17.0765 83.1679 16.6694C82.5439 16.26 81.7057 16.1849 80.6532 16.4444C79.7999 16.6547 79.1069 17.0669 78.5743 17.6809C78.0417 18.295 77.6864 19.0162 77.5084 19.8446L80.2112 30.8104L77.58 31.4589L72.1954 9.61271L74.8266 8.96418L76.8774 17.2845Z" fill="#5F20C8"/>
</g>
</g>
</svg>
