<svg width="75" height="75" viewBox="0 0 75 75" fill="none" xmlns="http://www.w3.org/2000/svg">
<path d="M64.9375 21H8.6875C7.4443 21 6.25201 21.4939 5.37294 22.3729C4.49386 23.252 4 24.4443 4 25.6875V63.1875C4 64.4307 4.49386 65.623 5.37294 66.5021C6.25201 67.3811 7.4443 67.875 8.6875 67.875H64.9375C66.1807 67.875 67.373 67.3811 68.2521 66.5021C69.1311 65.623 69.625 64.4307 69.625 63.1875V25.6875C69.625 24.4443 69.1311 23.252 68.2521 22.3729C67.373 21.4939 66.1807 21 64.9375 21V21ZM59.7812 25.6875L36.8125 41.5781L13.8437 25.6875H59.7812ZM8.6875 63.1875V27.8203L35.4766 46.3594C35.8689 46.6315 36.335 46.7774 36.8125 46.7774C37.29 46.7774 37.7561 46.6315 38.1484 46.3594L64.9375 27.8203V63.1875H8.6875Z" fill="#5F20C8"/>
</svg>
