<svg width="218" height="218" viewBox="0 0 218 218" fill="none" xmlns="http://www.w3.org/2000/svg">
<g id="hero-circle">
<g id="Group">
<path id="Vector" d="M109.306 119.555V96" stroke="#5F20C8" stroke-width="1.44217" stroke-linecap="round" stroke-linejoin="round"/>
<path id="Vector_2" d="M99 109.25L109.306 119.555L119.611 109.25" stroke="#5F20C8" stroke-width="1.44217" stroke-linecap="round" stroke-linejoin="round"/>
</g>
<g id="Group 8">
<path id="-" d="M105.651 25.74L112.341 25.74V28.17L105.651 28.17V25.74Z" fill="#5F20C8"/>
<path id="m" d="M147.177 26.7256L149.749 28.2106L148.924 29.6395C149.746 29.3753 150.532 29.2746 151.28 29.3375C152.057 29.393 152.774 29.6108 153.432 29.9908C154.714 30.7308 155.163 31.833 154.779 33.2974C156.548 32.633 158.161 32.7208 159.615 33.5608C160.395 34.0108 160.862 34.6616 161.017 35.5131C161.189 36.3747 160.936 37.3944 160.256 38.5722L153.446 50.3675L150.899 48.8975L157.604 37.2841C158.004 36.5912 158.167 36.0499 158.092 35.6601C158.026 35.253 157.786 34.9294 157.37 34.6894C156.989 34.4694 156.526 34.352 155.98 34.3372C155.445 34.305 154.894 34.3795 154.327 34.5605L154.072 35.0022L147.262 46.7975L144.716 45.3275L151.421 33.7141C151.821 33.0212 151.983 32.4799 151.908 32.0901C151.843 31.683 151.603 31.3594 151.187 31.1194C150.823 30.9094 150.369 30.797 149.823 30.7822C149.287 30.75 148.727 30.8195 148.144 30.9905L141.079 43.2275L138.507 41.7425L147.177 26.7256Z" fill="#5F20C8"/>
<path id="y" d="M156.083 55.5187C156.932 56.3672 157.575 56.8834 158.014 57.0673C158.466 57.2652 158.869 57.1875 159.223 56.8339C159.393 56.6642 159.987 55.7591 161.005 54.1186L168.981 41.221L171.272 43.512L163.763 54.3308L174.518 46.7576L176.809 49.0487L160.941 59.0613C159.881 59.726 158.848 59.924 157.844 59.6553C156.84 59.3866 155.765 58.6795 154.62 57.5339L154.344 57.2582L156.083 55.5187Z" fill="#5F20C8"/>
<path id="w" d="M194.197 77.9118L194.88 80.4618L183.001 85.5082L195.944 84.4318L196.581 86.808L184.892 92.3314L197.644 90.7779L198.328 93.328L180.833 95.034L180.134 92.426L191.344 86.9688L178.915 87.8765L178.17 85.0946L194.197 77.9118Z" fill="#5F20C8"/>
<path id="e" d="M181.76 109.607C181.76 108.267 182.01 107.227 182.51 106.487C183.03 105.747 183.79 105.227 184.79 104.927C185.79 104.627 187.09 104.477 188.69 104.477H192.65C195.05 104.477 196.8 104.847 197.9 105.587C199.02 106.347 199.58 107.687 199.58 109.607C199.58 111.007 199.29 112.057 198.71 112.757C198.13 113.477 197.31 113.947 196.25 114.167C195.21 114.407 193.8 114.527 192.02 114.527H190.61V107.687H187.13C186.07 107.687 185.3 107.837 184.82 108.137C184.36 108.457 184.13 108.957 184.13 109.637C184.13 110.317 184.36 110.777 184.82 111.017C185.3 111.257 186.02 111.377 186.98 111.377H188.03V114.497H187.37C185.55 114.497 184.16 114.107 183.2 113.327C182.24 112.547 181.76 111.307 181.76 109.607ZM192.35 111.377H193.91C195.09 111.377 195.93 111.257 196.43 111.017C196.95 110.797 197.21 110.317 197.21 109.577C197.21 109.057 197.09 108.657 196.85 108.377C196.61 108.117 196.21 107.937 195.65 107.837C195.11 107.737 194.32 107.687 193.28 107.687H192.35V111.377Z" fill="#5F20C8"/>
<path id="b" d="M178.991 128.914C179.26 127.91 179.996 127.093 181.2 126.463L179.983 126.137L180.814 123.036L204.286 129.325L203.455 132.426L195.4 130.268C196.199 131.455 196.439 132.648 196.118 133.845C195.709 135.372 194.78 136.21 193.332 136.36C191.898 136.535 190.389 136.41 188.805 135.986L184.748 134.898C180.17 133.672 178.25 131.677 178.991 128.914ZM181.596 128.929C181.404 129.644 181.64 130.194 182.303 130.578C182.98 130.988 184.072 131.394 185.579 131.798L189.636 132.885C190.872 133.216 191.85 133.354 192.569 133.298C193.307 133.247 193.774 132.855 193.971 132.121C194.152 131.445 194.059 130.674 193.69 129.809L182.939 126.929C182.266 127.432 181.818 128.098 181.596 128.929Z" fill="#5F20C8"/>
<path id="p" d="M176.468 169.292L174.198 171.562L173.222 170.586C173.321 172.014 172.926 173.174 172.035 174.065C170.917 175.182 169.694 175.444 168.365 174.85C167.035 174.284 165.791 173.421 164.631 172.262L161.661 169.292C160.162 167.793 159.179 166.343 158.713 164.943C158.246 163.571 158.571 162.327 159.688 161.21C160.41 160.488 161.463 160.156 162.849 160.213L157.907 155.27L160.176 153L176.468 169.292ZM161.916 162.546C161.393 163.069 161.322 163.663 161.704 164.328C162.086 165.021 162.828 165.919 163.931 167.022L166.901 169.992C167.806 170.897 168.584 171.505 169.234 171.816C169.899 172.142 170.5 172.035 171.038 171.498C171.561 170.975 171.865 170.247 171.95 169.313L164.101 161.464C163.238 161.592 162.51 161.952 161.916 162.546Z" fill="#5F20C8"/>
<path id="o" d="M144.931 172.271C146.525 171.351 147.929 171.164 149.145 171.709C150.353 172.282 151.477 173.469 152.517 175.27L155.037 179.635C156.077 181.436 156.538 182.994 156.42 184.31C156.294 185.652 155.435 186.784 153.841 187.704C152.265 188.614 150.873 188.782 149.665 188.21C148.449 187.664 147.322 186.491 146.282 184.69L143.762 180.325C142.722 178.524 142.264 176.952 142.39 175.609C142.508 174.294 143.355 173.181 144.931 172.271ZM146.116 174.323C145.614 174.613 145.335 174.971 145.28 175.395C145.225 175.82 145.297 176.263 145.495 176.726C145.693 177.189 146.007 177.793 146.437 178.538L149.152 183.241C149.582 183.985 149.948 184.559 150.25 184.962C150.562 185.383 150.915 185.675 151.31 185.839C151.705 186.004 152.154 185.941 152.656 185.651C153.159 185.361 153.446 184.999 153.519 184.564C153.574 184.14 153.497 183.688 153.289 183.207C153.091 182.744 152.777 182.14 152.347 181.396L149.632 176.693C149.202 175.948 148.836 175.374 148.534 174.971C148.232 174.568 147.884 174.285 147.489 174.12C147.076 173.966 146.619 174.033 146.116 174.323Z" fill="#5F20C8"/>
<path id="r" d="M135.385 195.457L132.284 196.288L131.648 193.912C131.322 195.014 130.911 195.838 130.416 196.385C129.901 196.937 129.306 197.303 128.63 197.485C128.456 197.531 128.289 197.565 128.129 197.588L127.213 194.168C127.893 194.234 128.494 194.198 129.016 194.058C129.518 193.923 129.939 193.676 130.277 193.316C130.601 192.981 130.867 192.464 131.073 191.767L127.797 179.539L130.897 178.708L135.385 195.457Z" fill="#5F20C8"/>
<path id="t" d="M107.374 181.76C109.874 181.76 111.124 183.14 111.124 185.9V197.21H112.954V199.34H111.124V204.41H107.914V199.34H105.124V197.21H107.914V186.11C107.914 185.41 107.804 184.92 107.584 184.64C107.364 184.36 106.944 184.22 106.324 184.22C105.924 184.22 105.534 184.25 105.154 184.31V181.94C105.954 181.82 106.694 181.76 107.374 181.76Z" fill="#5F20C8"/>
<path id="f" d="M87.3586 194.274L89.358 194.81L88.7446 197.099L86.7452 196.564L86.5122 197.433C86.2017 198.592 85.8663 199.496 85.506 200.145C85.1406 200.813 84.6454 201.271 84.0203 201.517C83.3758 201.759 82.5513 201.745 81.5467 201.476C80.8706 201.294 80.2126 201.046 79.5727 200.729L80.1783 198.469C80.5388 198.669 80.9122 198.821 81.2986 198.924C81.8588 199.075 82.2847 198.992 82.5762 198.677C82.8433 198.376 83.0752 197.858 83.2719 197.124L83.6446 195.733L81.0945 195.05L81.7079 192.76L84.258 193.444L88.1325 178.984L91.2331 179.815L87.3586 194.274Z" fill="#5F20C8"/>
<path id="o_2" d="M72.1715 171.753C73.7649 172.673 74.6294 173.796 74.7649 175.121C74.8731 176.454 74.4072 178.021 73.3672 179.822L70.8472 184.187C69.8072 185.988 68.6881 187.166 67.4899 187.722C66.2644 188.284 64.8549 188.106 63.2615 187.186C61.6853 186.276 60.8431 185.154 60.7349 183.822C60.5994 182.496 61.0517 180.933 62.0917 179.132L64.6117 174.767C65.6517 172.966 66.7844 171.784 68.0099 171.221C69.2081 170.666 70.5953 170.843 72.1715 171.753ZM70.9865 173.806C70.4842 173.516 70.0354 173.453 69.6403 173.617C69.2451 173.782 68.8965 174.065 68.5946 174.468C68.2926 174.871 67.9266 175.445 67.4966 176.19L64.7816 180.893C64.3516 181.637 64.0376 182.241 63.8396 182.704C63.6315 183.185 63.5551 183.637 63.6103 184.061C63.6654 184.486 63.9442 184.843 64.4465 185.133C64.9488 185.423 65.4061 185.491 65.8186 185.336C66.2138 185.172 66.5674 184.88 66.8793 184.459C67.1813 184.056 67.5473 183.482 67.9773 182.738L70.6923 178.035C71.1223 177.29 71.4363 176.686 71.6343 176.223C71.8324 175.76 71.9038 175.317 71.8486 174.892C71.7761 174.458 71.4888 174.096 70.9865 173.806Z" fill="#5F20C8"/>
<path id="l" d="M40.9111 178.514L38.6413 176.244L55.824 159.062L58.0938 161.331L40.9111 178.514Z" fill="#5F20C8"/>
<path id="i" d="M26.1679 158.091L24.5629 155.311L27.4728 153.631L29.0778 156.411L26.1679 158.091ZM31.3121 155.121L29.7071 152.341L44.724 143.671L46.329 146.451L31.3121 155.121Z" fill="#5F20C8"/>
<path id="o_3" d="M38.5852 127.331C39.0614 129.109 38.8789 130.514 38.0375 131.547C37.1717 132.566 35.7343 133.344 33.7251 133.882L28.8569 135.187C26.8477 135.725 25.2232 135.767 23.9833 135.313C22.7189 134.844 21.8486 133.721 21.3724 131.944C20.9013 130.186 21.0987 128.797 21.9645 127.778C22.8059 126.745 24.2311 125.96 26.2402 125.421L31.1085 124.117C33.1176 123.579 34.7544 123.544 36.0188 124.013C37.2587 124.467 38.1141 125.573 38.5852 127.331ZM36.2959 127.945C36.1458 127.385 35.8729 127.023 35.4772 126.86C35.0815 126.697 34.6344 126.651 34.1359 126.722C33.6374 126.794 32.9728 126.941 32.1421 127.163L26.8971 128.569C26.0665 128.791 25.4174 128.996 24.95 129.184C24.4632 129.376 24.0893 129.642 23.8281 129.981C23.567 130.32 23.5115 130.77 23.6616 131.33C23.8117 131.89 24.0872 132.262 24.4881 132.444C24.8838 132.607 25.3406 132.651 25.8584 132.574C26.3569 132.503 27.0215 132.355 27.8522 132.133L33.0972 130.728C33.9279 130.505 34.5769 130.3 35.0444 130.113C35.5118 129.925 35.8761 129.662 36.1372 129.323C36.3931 128.964 36.4461 128.505 36.2959 127.945Z" fill="#5F20C8"/>
<path id="2" d="M34.8789 94.7641L27.1766 86.3022C26.7906 85.8882 26.5525 85.6174 26.4625 85.4897C25.5619 84.5237 24.7955 83.7904 24.1636 83.2898C23.5316 82.7892 22.7134 82.4043 21.7088 82.1351C20.5883 81.8349 19.6795 81.788 18.9822 81.9946C18.285 82.2012 17.8251 82.7198 17.6025 83.5505C17.1056 85.4051 18.2964 86.718 21.1748 87.4893L21.9572 87.699L21.1264 90.7996L20.315 90.5822C18.1127 89.9921 16.544 89.0852 15.6089 87.8614C14.6737 86.6377 14.4753 85.0213 15.0137 83.0121C15.5106 81.1576 16.4171 79.8993 17.7333 79.2374C19.0301 78.5703 20.6445 78.4956 22.5763 79.0132C23.523 79.2669 24.3419 79.6106 25.0332 80.0443C25.7104 80.4535 26.278 80.8851 26.7361 81.3391C27.1942 81.7932 27.8375 82.4832 28.6661 83.4092L35.4516 91.0042L37.4393 83.5859L40.0473 84.2847L37.0812 95.3542L34.8789 94.7641Z" fill="#5F20C8"/>
<path id="0" d="M46.0245 72.6169C45.0245 74.3489 43.7065 75.3316 42.0707 75.5649C40.4449 75.781 38.688 75.344 36.8001 74.254L27.7328 69.019C25.8102 67.909 24.5483 66.6146 23.9471 65.1359C23.3386 63.6299 23.5443 61.9935 24.5643 60.2269C25.5743 58.4775 26.8786 57.4984 28.4771 57.2897C30.0683 57.0537 31.8252 57.4907 33.7478 58.6007L42.8151 63.8357C44.7203 64.9357 45.9859 66.2437 46.6117 67.7597C47.2202 69.2658 47.0245 70.8848 46.0245 72.6169ZM43.7381 71.2969C44.6581 69.7034 43.8191 68.1566 41.221 66.6566L32.1018 61.3916C30.9067 60.7016 29.8627 60.3298 28.9699 60.2762C28.0697 60.1953 27.3547 60.6139 26.8247 61.5319C26.2947 62.4498 26.2847 63.287 26.7949 64.0434C27.2877 64.7899 28.1317 65.5081 29.3268 66.1981L38.446 71.4631C41.0441 72.9631 42.8081 72.9077 43.7381 71.2969Z" fill="#5F20C8"/>
<path id="2_2" d="M51.9272 59.6108L49.4877 48.4314C49.3604 47.8799 49.2897 47.5263 49.2756 47.3708C48.9786 46.0838 48.6816 45.0656 48.3846 44.3161C48.0876 43.5665 47.5715 42.8241 46.8361 42.0887C46.0158 41.2684 45.2521 40.7735 44.545 40.6038C43.8379 40.4341 43.1803 40.6533 42.5722 41.2614C41.2146 42.619 41.5893 44.3514 43.6965 46.4586L44.2693 47.0314L41.9995 49.3012L41.4055 48.7072C39.7933 47.095 38.8882 45.5252 38.6902 43.9979C38.4922 42.4705 39.1286 40.9715 40.5994 39.5007C41.957 38.143 43.3712 37.5066 44.842 37.5915C46.2987 37.6622 47.7341 38.4047 49.1483 39.8189C49.8413 40.5118 50.3787 41.2189 50.7605 41.9402C51.1423 42.6332 51.4181 43.2908 51.5878 43.913C51.7575 44.5353 51.9697 45.4545 52.2242 46.6707L54.3031 56.6409L59.7337 51.2104L61.6429 53.1195L53.5394 61.223L51.9272 59.6108Z" fill="#5F20C8"/>
<path id="1" d="M61.7422 28.7816C61.7376 28.8536 61.2793 29.2799 60.3674 30.0604C59.4728 30.8309 58.855 31.3608 58.5139 31.6501L57.2989 29.5456C59.122 27.8234 60.1283 26.2262 60.3177 24.7543L62.4222 23.5393L74.5722 44.5838L71.7922 46.1888L61.7422 28.7816Z" fill="#5F20C8"/>
</g>
</g>
</svg>
